<svg xmlns="http://www.w3.org/2000/svg" viewBox="0 0 512 512" width="512" height="512">
  <defs>
    <linearGradient id="g" x1="0" y1="0" x2="1" y2="1">
      <stop offset="0" stop-color="#F2892E"/>
      <stop offset="1" stop-color="#E4681B"/>
    </linearGradient>
  </defs>
  <rect width="512" height="512" rx="112" fill="url(#g)"/>
  <g transform="translate(76,72) scale(15)">
    <path d="M12 3s5 4 5 9a5 5 0 0 1-10 0c0-1.5.6-2.7 1.3-3.6C9 10 9.5 11 10.5 11 12 11 11 7 12 3z" fill="#FFFFFF"/>
    <path d="M12 20a3 3 0 0 0 3-3c0-2-3-4-3-4s-3 2-3 4a3 3 0 0 0 3 3z" fill="#E4681B"/>
  </g>
</svg>
